<?xml version="1.0" encoding="UTF-8" standalone="no"?>
<svg
   xmlns:dc="http://purl.org/dc/elements/1.1/"
   xmlns:cc="http://creativecommons.org/ns#"
   xmlns:rdf="http://www.w3.org/1999/02/22-rdf-syntax-ns#"
   xmlns:svg="http://www.w3.org/2000/svg"
   xmlns="http://www.w3.org/2000/svg"
   xmlns:sodipodi="http://sodipodi.sourceforge.net/DTD/sodipodi-0.dtd"
   xmlns:inkscape="http://www.inkscape.org/namespaces/inkscape"
   xml:space="preserve"
   version="1.1"
   style="clip-rule:evenodd;fill-rule:evenodd;image-rendering:optimizeQuality;shape-rendering:geometricPrecision;text-rendering:geometricPrecision"
   viewBox="0 0 818.30001 534.92001"
   x="0px"
   y="0px"
   id="svg883"
   sodipodi:docname="noun_people_3797130.svg"
   width="818.29999"
   height="534.91998"
   inkscape:version="0.92.5 (2060ec1f9f, 2020-04-08)"><metadata
     id="metadata887"><rdf:RDF><cc:Work
         rdf:about=""><dc:format>image/svg+xml</dc:format><dc:type
           rdf:resource="http://purl.org/dc/dcmitype/StillImage" /></cc:Work></rdf:RDF></metadata><sodipodi:namedview
     pagecolor="#ffffff"
     bordercolor="#666666"
     borderopacity="1"
     objecttolerance="10"
     gridtolerance="10"
     guidetolerance="10"
     inkscape:pageopacity="0"
     inkscape:pageshadow="2"
     inkscape:window-width="1544"
     inkscape:window-height="836"
     id="namedview885"
     showgrid="false"
     inkscape:zoom="0.62173721"
     inkscape:cx="409.14999"
     inkscape:cy="161.62752"
     inkscape:window-x="56"
     inkscape:window-y="113"
     inkscape:window-maximized="1"
     inkscape:current-layer="svg883" /><defs
     id="defs873"><style
       type="text/css"
       id="style871">
   
    .fil0 {fill:black;fill-rule:nonzero}
   
  </style></defs><g
     id="g877"
     transform="translate(-14.18,-155.87)"><path
       class="fil0"
       d="m 69.47,320.67 h 143.51 c 3.85,0 7.32,1.56 9.85,4.08 l 41.36,41.36 c 2.72,2.71 4.07,6.28 4.07,9.85 l 0.01,116.03 c 0,3.84 -1.56,7.33 -4.08,9.86 l -37.28,37.27 v 137.74 c 0,7.69 -6.24,13.93 -13.93,13.93 H 69.47 c -7.69,0 -13.93,-6.24 -13.93,-13.93 V 539.12 L 18.26,501.85 c -2.71,-2.73 -4.07,-6.29 -4.07,-9.86 L 14.18,375.96 c 0,-3.85 1.56,-7.33 4.08,-9.85 l 41.36,-41.36 c 2.72,-2.72 6.29,-4.07 9.85,-4.08 z m 564.21,0 h 143.51 c 3.85,0 7.33,1.56 9.85,4.08 l 41.36,41.36 c 2.72,2.71 4.07,6.28 4.07,9.85 l 0.01,116.03 c 0,3.84 -1.56,7.33 -4.08,9.86 l -37.28,37.27 v 137.74 c 0,7.69 -6.24,13.93 -13.93,13.93 H 633.68 c -7.69,0 -13.93,-6.24 -13.93,-13.93 V 539.12 l -37.28,-37.27 c -2.71,-2.73 -4.07,-6.29 -4.07,-9.86 l -0.01,-116.03 c 0,-3.85 1.56,-7.33 4.08,-9.85 l 41.36,-41.36 c 2.72,-2.72 6.29,-4.07 9.85,-4.08 z m 137.74,27.86 H 639.45 l -33.19,33.2 v 104.49 l 37.28,37.28 c 2.52,2.52 4.08,6 4.08,9.85 V 662.92 H 763.26 V 533.35 c 0.01,-3.56 1.37,-7.14 4.08,-9.85 l 37.27,-37.28 V 381.73 Z M 705.43,155.87 c 41.61,0 75.34,33.72 75.34,75.33 0,41.58 -33.78,75.34 -75.34,75.34 -41.53,0 -75.33,-33.8 -75.33,-75.34 0,-41.55 33.77,-75.33 75.33,-75.33 z m 0,27.86 c -26.23,0 -47.47,21.23 -47.47,47.47 0,26.27 21.21,47.47 47.47,47.47 26.24,0 47.47,-21.2 47.47,-47.47 0,-26.22 -21.25,-47.47 -47.47,-47.47 z M 351.58,320.67 h 143.5 c 3.85,0 7.33,1.56 9.85,4.08 l 41.36,41.36 c 2.72,2.71 4.07,6.28 4.07,9.85 l 0.01,116.03 c 0,3.84 -1.55,7.33 -4.08,9.86 l -37.27,37.27 v 137.74 c 0,7.69 -6.25,13.93 -13.94,13.93 h -143.5 c -7.69,0 -13.94,-6.24 -13.94,-13.93 V 539.12 l -37.27,-37.27 c -2.71,-2.73 -4.07,-6.29 -4.07,-9.86 l -0.01,-116.03 c 0,-3.85 1.55,-7.33 4.08,-9.85 l 41.36,-41.36 c 2.72,-2.72 6.28,-4.07 9.85,-4.08 z m 137.73,27.86 H 357.35 l -33.2,33.2 v 104.49 l 37.28,37.28 c 2.52,2.52 4.08,6 4.08,9.85 V 662.92 H 481.15 V 533.35 c 0.01,-3.56 1.37,-7.14 4.08,-9.85 l 37.28,-37.28 V 381.73 Z M 423.32,155.87 c 41.62,0 75.34,33.72 75.34,75.33 0,41.58 -33.78,75.34 -75.34,75.34 -41.53,0 -75.33,-33.8 -75.33,-75.34 0,-41.55 33.78,-75.33 75.33,-75.33 z m 0,27.86 c -26.23,0 -47.46,21.23 -47.46,47.47 0,26.27 21.2,47.47 47.46,47.47 26.25,0 47.47,-21.2 47.47,-47.47 0,-26.22 -21.25,-47.47 -47.47,-47.47 z M 207.21,348.53 H 75.24 l -33.19,33.2 v 104.49 l 37.27,37.28 c 2.53,2.52 4.08,6 4.08,9.85 V 662.92 H 199.04 V 533.35 c 0.01,-3.56 1.38,-7.14 4.08,-9.85 L 240.4,486.22 V 381.73 Z M 141.22,155.87 c 41.61,0 75.33,33.72 75.33,75.33 0,41.58 -33.78,75.34 -75.33,75.34 -41.54,0 -75.34,-33.8 -75.34,-75.34 0,-41.55 33.78,-75.33 75.34,-75.33 z m 0,27.86 c -26.23,0 -47.47,21.23 -47.47,47.47 0,26.27 21.2,47.47 47.47,47.47 26.24,0 47.47,-21.2 47.47,-47.47 0,-26.22 -21.25,-47.47 -47.47,-47.47 z"
       id="path875"
       inkscape:connector-curvature="0"
       style="fill:#000000;fill-rule:nonzero" /></g></svg>